<svg xmlns="http://www.w3.org/2000/svg" viewBox="0 0 24 24" width="24px" height="24px">
  <rect width="24" height="24" fill="white" rx="4" ry="4"/>
  <g transform="translate(2, 2)">
    <path d="M8 0v2H2v2h2l3.6 7.59-1.35 2.45c-.16.28-.25.61-.25.96 0 1.11.9 2.01 2.01 2.01H16v-2H7.42c-.09 0-.17-.08-.17-.18l.03-.12.9-1.63h7.45c.75 0 1.41-.42 1.75-1.06l3.58-6.49-1.74-.96L15.33 9H7.97l-.93-2H17V3H8V0H6zm-1 16c0-1.11.9-2 2-2s2 .89 2 2-.9 2-2 2-2-.89-2-2zm8 0c0-1.11.9-2 2-2s2 .89 2 2-.9 2-2 2-2-.89-2-2z" fill="black"/>
  </g>
</svg>
